# xmcd
#
# Track frame offsets: 
#        202
#        22143
#        42362
#        66775
#        84954
#        108288
#        133266
#        151424
#        167198
#        182819
#        210182
#        230318
#
# Disc length: 3360 seconds
#
# Revision: 4
# Processed by: cddbd v1.5.2PL0 Copyright (c) Steve Scherf et al.
# Submitted via: ExactAudioCopy v1.1
#
DISCID=9a0d1e0c
DTITLE=Mark Selby - Nine Pound Hammer
DYEAR=2008
DGENRE=Blues
TTITLE0=Nine Pound Hammer
TTITLE1=I Should Know Better
TTITLE2=Cold One Closin' In
TTITLE3=Buck- Fifty and A Flat-Head Ford
TTITLE4=Leveller, Reveller
TTITLE5=Baby I Do
TTITLE6=A Good Friend To The Blues
TTITLE7=Sure Hope It Ain't A Train
TTITLE8=Dangerous Game
TTITLE9=I Stole Your Love
TTITLE10=Tell The Truth
TTITLE11=Guitar In The Rain
EXTD=YEAR: 2008
EXTT0=
EXTT1=
EXTT2=
EXTT3=
EXTT4=
EXTT5=
EXTT6=
EXTT7=
EXTT8=
EXTT9=
EXTT10=
EXTT11=
PLAYORDER=
